<?xml version="1.0" encoding="utf-8"?>
<!-- Generator: Adobe Illustrator 16.0.4, SVG Export Plug-In . SVG Version: 6.00 Build 0)  -->
<!DOCTYPE svg PUBLIC "-//W3C//DTD SVG 1.1//EN" "http://www.w3.org/Graphics/SVG/1.1/DTD/svg11.dtd">
<svg version="1.1" id="Layer_1" xmlns="http://www.w3.org/2000/svg" xmlns:xlink="http://www.w3.org/1999/xlink" x="0px" y="0px"
	 width="1008px" height="648px" viewBox="0 0 1008 648" enable-background="new 0 0 1008 648" xml:space="preserve">
<title>Asset 2</title>
<g id="Layer_2">
	<g id="Layer_1-2">
		<polygon points="407.705,594.295 388.517,594.295 388.517,562.332 364.925,562.332 364.925,646.587 388.517,646.587 
			388.517,612.885 407.705,612.885 407.705,646.587 431.297,646.587 431.297,562.332 407.705,562.332 		"/>
		<path d="M321.82,629.192c-7.882,0-11.687-5.436-11.687-16.308v-16.634c0-11.197,4.022-16.307,10.872-16.307
			c6.142,0,9.078,3.315,9.676,11.415h24.244c-1.196-21.743-14.405-29.951-33.593-29.951c-20.493,0-35.822,12.991-35.822,35.332
			v16.036c0,22.286,12.502,35.495,36.637,35.495c19.46,0,32.615-9.893,33.484-30.549h-23.32
			C331.821,625.985,327.69,629.192,321.82,629.192z"/>
		<path d="M275.996,590.761v-3.696c0-16.307-10.002-25.004-31.093-25.004h-29.842v84.798h23.428v-31.364h4.022l12.611,31.364h24.515
			l-15.329-35.931C272.232,607.526,276.983,599.327,275.996,590.761z M253.111,591.359c0,6.251-3.044,8.86-9.404,8.86h-5.436
			v-20.059h5.436c6.36,0,9.404,2.338,9.404,8.154V591.359z"/>
		<path d="M154.724,562.332l-20.874,84.526h21.743l3.207-15.22h20.547l3.207,15.22h24.624l-20.765-84.255L154.724,562.332z
			 M162.007,615.276l6.958-33.213l6.958,33.213H162.007z"/>
		<polygon points="84.819,603.209 73.295,562.332 43.453,562.332 43.453,646.587 64.055,646.587 64.055,595.599 74.926,631.421 
			91.723,631.421 102.757,595.599 102.757,646.587 126.077,646.587 126.077,562.332 96.234,562.332 		"/>
		<path d="M937.531,593.588c-8.48-2.338-10.872-4.24-10.872-9.078c-0.304-3.167,2.018-5.982,5.185-6.286
			c0.464-0.045,0.932-0.033,1.393,0.035c4.458,0,7.284,2.229,7.557,8.371h22.015c-0.707-17.558-11.198-25.439-29.462-25.439
			c-18.265,0-29.354,9.894-29.354,25.113c0,16.036,7.773,22.722,25.711,27.94c8.371,2.337,12.014,3.75,12.014,9.566
			c0,4.729-2.5,7.176-7.556,7.176c-6.469,0-8.86-3.044-9.078-10.165h-22.775C902.634,639.792,913.994,648,933.889,648
			c19.896,0,30.387-10.871,30.387-26.744C964.547,602.992,953.24,597.937,937.531,593.588z"/>
		<polygon points="788.265,603.209 776.687,562.332 746.898,562.332 746.898,646.587 767.5,646.587 767.5,595.599 778.317,631.421 
			795.168,631.421 806.148,595.599 806.148,646.587 829.522,646.587 829.522,562.332 799.68,562.332 		"/>
		<polygon points="866.377,611.743 888.283,611.743 888.283,595.001 866.377,595.001 866.377,580.487 893.937,580.487 
			893.937,562.332 842.895,562.332 842.895,646.587 895.621,646.587 895.621,628.322 866.377,628.322 		"/>
		<rect x="708.685" y="562.332" width="23.809" height="84.255"/>
		<path d="M500.82,561.136c-20.982,0-37.018,12.992-37.018,35.225v16.308c0,22.015,14.024,35.332,36.637,35.332
			c22.613,0,37.235-13.427,37.235-35.931v-16.035C537.729,573.041,522.128,561.136,500.82,561.136z M513.322,612.504
			c0,11.198-4.62,16.742-12.502,16.742s-12.611-5.436-12.611-16.742v-16.307c0-11.198,4.729-16.634,12.611-16.634
			s12.502,5.436,12.502,16.634V612.504z"/>
		<path d="M659.328,562.332h-28.811v84.526h28.973c24.625,0,38.051-11.904,38.051-35.333V596.85
			C697.16,573.312,684.169,562.332,659.328,562.332z M672.646,611.254c0,12.285-3.914,17.068-14.024,17.068h-4.729v-47.943h4.458
			c10.273,0,14.241,4.24,14.241,16.851L672.646,611.254z"/>
		<polygon points="548.546,646.587 572.083,646.587 572.083,616.31 593.826,616.31 593.826,598.86 572.083,598.86 572.083,580.487 
			598.773,580.487 598.773,562.332 548.546,562.332 		"/>
		<polygon points="552.786,14.459 457.497,14.459 367.97,231.945 278.388,14.459 183.153,14.459 58.673,502.756 191.198,502.756 
			248.165,263.636 323.342,436.603 412.543,436.603 487.774,263.636 544.687,502.756 677.266,502.756 		"/>
		<path d="M736.842,502.756l-73.709-288.097h145.516c90.94,0,155.572,54.358,155.572,144.048
			c0,89.691-64.632,144.049-155.572,144.049H736.842z"/>
		<path d="M721.839,0c-49.683,0-88.168,34.898-88.168,86.973s38.485,86.973,88.168,86.973c49.684,0,88.06-34.409,88.06-86.973
			S771.522,0,721.839,0z"/>
	</g>
</g>
</svg>
